<?xml version="1.0" encoding="UTF-8"?>
<svg version="1.1" width="196" height="196" xmlns="http://www.w3.org/2000/svg">
  <defs></defs>
  <path d="M -5.908 181.119 L -7.544 175.66 L -7.81 10.683 L -5.987 5.034 L -2.257 1.627 L 3.603 0.212 L 169 0 L 174.391 2.022 L 177.674 5.436 L 179 10 L 179 176 L 176.978 181.153 L 173.15 184.957 L 168 187 L 2.755 186.681 L -2.558 184.63 L -5.908 181.119 Z M 18 27 L 18 88 L 36 88 L 36 54 L 54.222 75 L 71 55 L 71.525 88 L 90 88 L 90 27 L 72 27 L 55 48 L 37 27 L 18 27 Z M 121 27 L 121 57 L 104 57 L 130.762 88.238 L 157 57 L 139 57 L 139 27 L 121 27 Z M 92 105 L 67.287 174 L 81 174 L 105 105 L 92 105 Z M 67 116 L 27 133 L 27 146 L 67 162 L 67 149 L 42.921 139.396 L 67 129 L 67 116 Z M 107 116 L 107 129 L 132.554 139.525 L 123 143 L 107 149 L 107.159 163.268 L 147 146 L 146.525 133.079 L 107 116 Z" fill="#606060" transform="translate(13,5)"></path>
  <path d="M 0 0 L 19 0 L 37 21 L 54 0 L 72 0 L 72 61 L 53.366 61 L 53 28 L 36.705 48.729 L 18 27 L 18 61 L 0 61 L 0 0 Z" fill="#F9F9F9" transform="translate(31,32)"></path>
  <path d="M 0 0 L 18 0 L 18 30 L 36 30 L 9.732 61.109 L -17 30 L 0 30 L 0 0 Z" fill="#FAFAFA" transform="translate(134,32)"></path>
  <path d="M -38 17 L 2 0 L 2 13 L -21.762 23.238 L 2 33 L 2 46 L -38 30 L -38 17 Z" fill="#E9C04E" transform="translate(78,121)"></path>
  <path d="M 0 0 L 39.841 17 L 40 30 L 0.079 47.426 L 0 33 L 25.079 23.604 L 0 13 L 0 0 Z" fill="#DE546D" transform="translate(120,121)"></path>
  <path d="M 0 0 L 13 0 L -11 69 L -24.713 69.079 L 0 0 Z" fill="#E58C5D" transform="translate(105,110)"></path>
</svg>